<?xml version="1.0" encoding="utf-8"?>
<svg version="1.1" id="Layer_1" xmlns="http://www.w3.org/2000/svg" xmlns:xlink="http://www.w3.org/1999/xlink" x="0px" y="0px"
	 width="1200px" height="1200px" viewBox="0 0 1200 1200" enable-background="new 0 0 1200 1200" xml:space="preserve">
<g>
	<linearGradient id="SVGID_1_" gradientUnits="userSpaceOnUse" x1="718.3651" y1="712.8156" x2="129.4956" y2="187.4159">
		<stop  offset="0.0244" style="stop-color:#404040;stop-opacity:0"/>
		<stop  offset="0.5777" style="stop-color:#545454;stop-opacity:0.5671"/>
		<stop  offset="1" style="stop-color:#5E5E5E"/>
	</linearGradient>
	<path fill="url(#SVGID_1_)" d="M1139.771,405.386c0,0-273.824-269.233-312.944-312.951c-39.12-43.718-108.148-37.03-108.148-37.03
		H178.941C107.731,55.404,50,113.127,50,184.342v560.857c0,43.58,21.676,82.03,54.777,105.37l293.272,294.394H718.68V840.296
		c163.291,0,405.913,0,421.092,0C1162.786,840.296,1139.771,405.386,1139.771,405.386z"/>
	<path fill="#0067A4" d="M850.552,727.414c0,68.632-55.637,124.265-124.275,124.265H185.746
		c-68.639,0-124.269-55.633-124.269-124.265V186.869c0-68.636,55.63-124.269,124.269-124.269h540.531
		c68.639,0,124.275,55.633,124.275,124.269V727.414z"/>
	<g>
		<defs>
			<path id="SVGID_2_" d="M850.552,727.414c0,68.632-55.637,124.265-124.275,124.265H185.746
				c-68.639,0-124.269-55.633-124.269-124.265V186.869c0-68.636,55.63-124.269,124.269-124.269h540.531
				c68.639,0,124.275,55.633,124.275,124.269V727.414z"/>
		</defs>
		<clipPath id="SVGID_3_">
			<use xlink:href="#SVGID_2_"  overflow="visible"/>
		</clipPath>
		<linearGradient id="SVGID_4_" gradientUnits="userSpaceOnUse" x1="736.1257" y1="760.8041" x2="506.4492" y2="554.0931">
			<stop  offset="0.0244" style="stop-color:#404040;stop-opacity:0"/>
			<stop  offset="0.5777" style="stop-color:#545454;stop-opacity:0.5671"/>
			<stop  offset="1" style="stop-color:#5E5E5E"/>
		</linearGradient>
		<path opacity="0.6" clip-path="url(#SVGID_3_)" fill="url(#SVGID_4_)" d="M506.324,373.496l-26.872-26.877l-13.975,7.567
			L344.58,230.962l-65.394,70.688l55.098,55.431l-71.899,259.565L601.738,943.19c157.198-28.162,295.628-127.027,342.464-276.882
			L642.825,373.496H506.324z"/>
	</g>
	<g>
		<rect x="265.122" y="346.194" fill="#FFFFFF" width="86.973" height="267.701"/>
		<path fill="#FFFFFF" d="M400.554,612.893V346.62h78.898v35.502c0,0,22.364-44.052,80.221-42.736c0,0,93.343-9.851,97.956,96.645
			v177.527H575.45V458.391c0,0-1.324-51.278-47.345-45.375c0,0-39.449-1.962-44.062,47.995v151.881H400.554z"/>
		<path fill="#FFFFFF" d="M355.856,261.8c0,26.887-21.788,48.657-48.653,48.657c-26.873,0-48.668-21.77-48.668-48.657
			c0-26.869,21.796-48.646,48.668-48.646C334.068,213.155,355.856,234.931,355.856,261.8z"/>
	</g>
</g>
</svg>
